<?xml version="1.0" encoding="utf-8"?>
<!-- Generator: Adobe Illustrator 24.2.1, SVG Export Plug-In . SVG Version: 6.00 Build 0)  -->
<svg version="1.1" id="レイヤー_1" xmlns="http://www.w3.org/2000/svg" xmlns:xlink="http://www.w3.org/1999/xlink" x="0px"
	 y="0px" viewBox="0 0 281 60" style="enable-background:new 0 0 281 60;" xml:space="preserve">
<style type="text/css">
	.st0{fill:url(#SVGID_1_);}
	.st1{fill:url(#SVGID_2_);}
	.st2{fill:url(#SVGID_3_);}
	.st3{fill:#E3007F;}
	.st4{fill:#F7B52C;}
	.st5{fill:#0DAC67;}
	.st6{fill:#EEEEEF;}
</style>
<desc>Created with Sketch.</desc>
<g id="Symbols">
	<g>
		<g>
			<g>
				<g>
					
						<linearGradient id="SVGID_1_" gradientUnits="userSpaceOnUse" x1="64.619" y1="50.3896" x2="31.1415" y2="26.9485" gradientTransform="matrix(1 0 0 1 -4.1446 0.647)">
						<stop  offset="0.182" style="stop-color:#C1D630"/>
						<stop  offset="0.3053" style="stop-color:#ABCF37"/>
						<stop  offset="0.5598" style="stop-color:#83C145"/>
						<stop  offset="0.6919" style="stop-color:#74BC4A"/>
					</linearGradient>
					<path class="st0" d="M26,29.1L26,29.1L26,29.1c1.6-2.7,4.1-4.5,6.9-5.3c2.8-0.7,5.9-0.4,8.6,1.1l7.9,4.6l7.9,4.6
						c2.7,1.6,4.5,4.1,5.3,6.9c0.7,2.8,0.4,5.9-1.1,8.6l0,0l0,0c-1.6,2.7-4.1,4.5-6.9,5.3c-2.8,0.7-5.9,0.4-8.6-1.1l-7.9-4.6
						l-7.9-4.6c-2.7-1.6-4.5-4.1-5.3-6.9S24.4,31.8,26,29.1z"/>
				</g>
			</g>
			<g>
				<g>
					
						<linearGradient id="SVGID_2_" gradientUnits="userSpaceOnUse" x1="13.448" y1="47.3049" x2="50.4874" y2="30.0332" gradientTransform="matrix(1 0 0 1 -4.1446 0.647)">
						<stop  offset="0.1" style="stop-color:#659FC0"/>
						<stop  offset="0.3188" style="stop-color:#3C7DAF"/>
						<stop  offset="0.5643" style="stop-color:#145C9F"/>
						<stop  offset="0.6918" style="stop-color:#054F99"/>
					</linearGradient>
					<path class="st1" d="M45.5,29.1L45.5,29.1L45.5,29.1c1.6,2.7,1.9,5.8,1.1,8.6c-0.7,2.8-2.6,5.3-5.3,6.9l-7.9,4.6l-7.9,4.6
						c-2.7,1.6-5.8,1.9-8.6,1.1c-2.8-0.7-5.3-2.6-6.9-5.3l0,0l0,0C8.5,46.8,8.2,43.8,9,41s2.6-5.3,5.3-6.9l7.9-4.6l7.9-4.6
						c2.7-1.6,5.8-1.9,8.6-1.1C41.5,24.6,44,26.4,45.5,29.1z"/>
				</g>
			</g>
			<g>
				<g>
					
						<linearGradient id="SVGID_3_" gradientUnits="userSpaceOnUse" x1="39.9345" y1="4.4395" x2="39.9345" y2="45.3764" gradientTransform="matrix(1 0 0 1 -4.1446 0.647)">
						<stop  offset="0" style="stop-color:#F7B52C"/>
						<stop  offset="1.018757e-02" style="stop-color:#F7B22B"/>
						<stop  offset="0.2429" style="stop-color:#EE7220"/>
						<stop  offset="0.4124" style="stop-color:#E9491A"/>
						<stop  offset="0.5" style="stop-color:#E73A17"/>
					</linearGradient>
					<path class="st2" d="M35.8,46L35.8,46L35.8,46c-3.1,0-5.9-1.3-8-3.3c-2-2-3.3-4.9-3.3-8v-9.2v-9.2c0-3.1,1.3-5.9,3.3-8
						s4.9-3.3,8-3.3h0h0c3.1,0,5.9,1.3,8,3.3c2,2,3.3,4.9,3.3,8v9.2v9.2c0,3.1-1.3,5.9-3.3,8C41.7,44.8,38.9,46,35.8,46z"/>
				</g>
			</g>
			<polyline class="st3" points="29.7,25.2 24.5,28.2 24.5,34.2 			"/>
			<polyline class="st4" points="47.1,34.2 47.1,28.2 41.9,25.2 			"/>
			<polyline class="st5" points="30.6,44.8 35.8,47.8 41,44.8 			"/>
			<path class="st6" d="M47.1,34.7c0,3.1-1.3,5.9-3.3,8c-2,2-4.9,3.3-8,3.3c-3.1,0-5.9-1.3-8-3.3c-2-2-3.3-4.9-3.3-8
				c0-3.1,1.3-5.9,3.3-8s4.9-3.3,8-3.3c3.1,0,5.9,1.3,8,3.3S47.1,31.6,47.1,34.7z"/>
		</g>
		<g>
			<g>
				<path d="M81.5,23.4c-0.2,2.6-1.5,3.9-3.9,3.9h-3.9c-1.1,0-2-0.4-2.7-1.1s-1.1-1.7-1.1-2.7v-9.7c0-1,0.4-2,1.1-2.7
					c0.7-0.8,1.7-1.2,2.8-1.2h3.9c2.4,0,3.7,1.3,3.9,3.9h-1.9c-0.2-1.3-0.8-1.9-1.9-1.9h-1.9c-0.5,0-1,0.2-1.4,0.6
					c-0.4,0.4-0.6,0.8-0.6,1.4v9.7c0,0.5,0.2,1,0.6,1.4c0.4,0.4,0.8,0.6,1.4,0.6h1.9c1.1,0,1.8-0.6,1.9-1.9H81.5z"/>
				<path d="M85.4,27.3V9.9h3.9v17.5H85.4z"/>
				<path d="M93.2,11.8V9.9H97v1.9H93.2z M93.2,27.3V13.7H97v13.6H93.2z"/>
				<path d="M100.9,13.7h3.9v1.9c0-0.7,0.2-1.1,0.5-1.5c0.3-0.3,0.8-0.5,1.5-0.5h1.9c1.1,0,2,0.4,2.7,1.2c0.8,0.8,1.1,1.7,1.1,2.7
					v5.8c0,1.1-0.4,2-1.1,2.7s-1.7,1.1-2.7,1.1h-3.9v3.9h-3.9V13.7z M104.8,25.4h1.9c0.5,0,1-0.2,1.4-0.6c0.4-0.4,0.6-0.8,0.6-1.4
					v-5.8c0-0.5-0.2-1-0.6-1.4c-0.4-0.4-0.8-0.6-1.4-0.6c-0.5,0-1,0.2-1.4,0.6c-0.4,0.4-0.6,0.8-0.6,1.4V25.4z"/>
				<path d="M116.4,13.7h3.9v1.9c0-0.7,0.2-1.1,0.5-1.5c0.3-0.3,0.8-0.5,1.5-0.5h1.9c1.1,0,2,0.4,2.7,1.2c0.8,0.8,1.1,1.7,1.1,2.7
					v5.8c0,1.1-0.4,2-1.1,2.7s-1.7,1.1-2.7,1.1h-3.9v3.9h-3.9V13.7z M120.3,25.4h1.9c0.5,0,1-0.2,1.4-0.6s0.6-0.8,0.6-1.4v-5.8
					c0-0.5-0.2-1-0.6-1.4c-0.4-0.4-0.8-0.6-1.4-0.6c-0.5,0-1,0.2-1.4,0.6c-0.4,0.4-0.6,0.8-0.6,1.4V25.4z"/>
				<path d="M143.6,21.5h-7.8v1.9c0,0.5,0.2,1,0.6,1.4c0.4,0.4,0.8,0.6,1.4,0.6h1.9c1.3,0,1.9-0.6,1.9-1.9h1.9
					c-0.3,2.6-1.6,3.9-3.9,3.9h-3.9c-1.1,0-2-0.4-2.7-1.1c-0.8-0.8-1.1-1.7-1.1-2.7v-5.8c0-1.1,0.4-2,1.1-2.8
					c0.8-0.8,1.7-1.1,2.7-1.1h3.9c1.1,0,2,0.4,2.7,1.2c0.8,0.8,1.1,1.7,1.1,2.7V21.5z M135.8,19.5h3.9v-1.9c0-0.5-0.2-1-0.6-1.4
					c-0.4-0.4-0.8-0.6-1.4-0.6c-0.5,0-1,0.2-1.4,0.6c-0.4,0.4-0.6,0.8-0.6,1.4V19.5z"/>
				<path d="M151.4,27.3h-3.9V13.7h3.9v3.9c0.2-1.3,0.6-2.3,1.2-2.9s1.5-1,2.7-1h1.9v3.9h-3.9c-0.5,0-1,0.2-1.4,0.6
					c-0.4,0.4-0.6,0.8-0.6,1.4V27.3z"/>
			</g>
			<g>
				<path d="M70.6,51.6V34.1h3.9v15.5h5.8v1.9H70.6z"/>
				<path d="M92,43.8v-1.9c0-0.5-0.2-1-0.6-1.4C91,40.2,90.5,40,90,40h-1.9c-1.1,0-1.8,0.6-1.9,1.9h-1.9c0.3-2.6,1.6-3.9,3.9-3.9H92
					c1.1,0,2,0.4,2.7,1.2c0.8,0.8,1.1,1.7,1.1,2.7v9.7H92v-1.9c-0.2,1.3-0.8,1.9-1.9,1.9h-1.9c-1.1,0-2-0.4-2.7-1.1
					c-0.8-0.8-1.1-1.7-1.1-2.7v0c0-1.1,0.4-2,1.1-2.7c0.8-0.8,1.7-1.1,2.7-1.1H92z M92,45.8H90c-0.5,0-1,0.2-1.4,0.6
					c-0.4,0.4-0.6,0.8-0.6,1.4v0c0,0.5,0.2,1,0.6,1.4c0.4,0.4,0.8,0.6,1.4,0.6c0.5,0,1-0.2,1.4-0.6c0.4-0.4,0.6-0.8,0.6-1.4V45.8z"
					/>
				<path d="M99.7,51.6V34.1h3.9V40c0.1-0.7,0.3-1.1,0.6-1.5c0.3-0.3,0.8-0.5,1.3-0.5h1.9c1.1,0,2,0.4,2.7,1.2
					c0.8,0.8,1.1,1.7,1.1,2.7v5.8c0,1-0.4,2-1.1,2.7c-0.8,0.8-1.7,1.2-2.7,1.2H99.7z M103.6,49.7h1.9c0.5,0,1-0.2,1.4-0.6
					c0.4-0.4,0.6-0.8,0.6-1.4v-5.8c0-0.5-0.2-1-0.6-1.4c-0.4-0.4-0.8-0.6-1.4-0.6c-0.5,0-1,0.2-1.4,0.6c-0.4,0.4-0.6,0.8-0.6,1.4
					V49.7z"/>
				<path d="M119.1,38h3.9c1.1,0,2,0.4,2.7,1.2c0.8,0.8,1.1,1.7,1.1,2.7v5.8c0,1-0.4,2-1.1,2.7c-0.8,0.8-1.7,1.2-2.7,1.2h-3.9
					c-1.1,0-2-0.4-2.7-1.1c-0.8-0.8-1.1-1.7-1.1-2.7v-5.8c0-1.1,0.4-2,1.1-2.8S118.1,38,119.1,38z M119.1,41.9v5.8
					c0,0.5,0.2,1,0.6,1.4c0.4,0.4,0.8,0.6,1.4,0.6c0.5,0,1-0.2,1.4-0.6c0.4-0.4,0.6-0.8,0.6-1.4v-5.8c0-0.5-0.2-1-0.6-1.4
					c-0.4-0.4-0.8-0.6-1.4-0.6c-0.5,0-1,0.2-1.4,0.6C119.3,40.9,119.1,41.4,119.1,41.9z"/>
			</g>
		</g>
	</g>
</g>
</svg>
